<svg fill="#1C2033" width="52" height="52" viewBox="0 0 64 64" xmlns="http://www.w3.org/2000/svg"><g clip-path="url(#clip0_412_125)"><path d="M38.5203 8.79767C36.5929 8.26798 34.5521 8.01465 32.4886 8.01465C30.4252 8.01465 28.4751 8.29101 26.5703 8.77464L32.5567 25.5404L38.5203 8.79767Z"/><path d="M56.0921 32.0117C56.0921 29.0179 55.5932 26.1622 54.5955 23.5137L43.3711 53.2683C50.8995 49.2611 56.0921 41.2467 56.0921 32.0117Z"/><path d="M44.3696 11.2611L37.4535 30.6061H27.7031L20.7643 11.1689C18.2019 12.6659 15.9571 14.6234 14.0977 16.9725L23.9615 42.9501L27.567 33.4618H37.0453L40.6508 42.9501L50.6053 16.65C48.8593 14.4852 46.7278 12.6659 44.3469 11.238"/><path d="M32.4878 0C15.1409 0 0.96875 14.3706 0.96875 32.0115C0.96875 49.6524 15.1409 64 32.4878 64C49.8346 64 63.9842 49.6063 63.9842 32.0115C63.9842 14.4167 49.8573 0 32.4878 0ZM32.4878 59.9237C17.3632 59.9237 4.98232 47.3955 4.98232 32.0345C4.98232 16.6736 17.3405 4.07629 32.4878 4.07629C47.635 4.07629 59.9932 16.6276 59.9932 32.0345C59.9932 47.4415 47.635 59.9237 32.4878 59.9237Z"/><path d="M32.2834 38.5752L26.1836 54.627V55.1337C28.1791 55.7094 30.288 55.9858 32.4875 55.9858C34.551 55.9858 36.5464 55.7325 38.4511 55.2258L38.3831 54.627L32.2834 38.5752Z"/><path d="M8.88281 32.0114C8.88281 41.0391 13.8261 48.9383 21.173 53.0146L10.2207 24.043C9.33633 26.5303 8.88281 29.2017 8.88281 32.0114Z"/></g><defs><clipPath id="clip0_412_125"><rect width="64" height="64" fill="white"/></clipPath></defs></svg>